<svg width="148" height="44" viewBox="0 0 148 44" fill="none" xmlns="http://www.w3.org/2000/svg">
<path d="M8.22843 15.3477C10.153 15.3477 11.6058 15.7073 12.5867 16.4266C13.5711 17.1458 14.0599 18.2046 14.0599 19.5995C14.0599 20.3221 13.8698 20.9607 13.4862 21.5153C13.1027 22.0699 12.5969 22.49 11.969 22.7757C12.6614 23.0278 13.2384 23.4513 13.6933 24.0496C14.1481 24.6479 14.3755 25.3234 14.3755 26.073C14.3755 27.4678 13.8901 28.5367 12.9228 29.2727C11.9554 30.0088 10.5162 30.3785 8.6052 30.3785H1.70117V15.3477H8.22843ZM5.3229 18.3659V21.3304H8.14358C9.57598 21.3304 10.2922 20.833 10.2922 19.8381C10.2922 18.8567 9.57598 18.3659 8.14358 18.3659H5.3229ZM5.3229 24.3252V27.3737H8.4253C9.15508 27.3737 9.70496 27.2527 10.0783 27.0141C10.4517 26.7754 10.6384 26.3822 10.6384 25.8377C10.6384 25.2999 10.4517 24.9134 10.0783 24.6781C9.70496 24.4428 9.15508 24.3252 8.4253 24.3252H5.3229Z" fill="#2C5697"/>
<path d="M29.6466 24.3151C29.6466 26.3486 29.0594 27.9148 27.8884 29.0139C26.7173 30.113 25.0881 30.6609 22.9972 30.6609C20.9063 30.6609 19.2804 30.113 18.1127 29.0173C16.9451 27.9216 16.3613 26.3553 16.3613 24.3151V15.3477H19.9932V24.1739C19.9932 25.1755 20.2613 25.9318 20.7943 26.446C21.3306 26.9569 22.0637 27.2124 22.9938 27.2124C23.934 27.2124 24.6706 26.9569 25.2069 26.446C25.7432 25.9352 26.0079 25.1789 26.0079 24.1739V15.3477H29.6398V24.3151H29.6466Z" fill="#2C5697"/>
<path d="M39.7078 15.0688C42.0635 15.0688 43.9473 15.7948 45.356 17.2468L42.7763 19.761C41.9447 18.8803 40.8653 18.44 39.5347 18.44C38.3128 18.44 37.3115 18.8501 36.5308 19.6736C35.7501 20.497 35.3597 21.5592 35.3597 22.8633C35.3597 24.2514 35.7637 25.3505 36.5681 26.1605C37.3726 26.9705 38.3671 27.3739 39.5449 27.3739C41.6766 27.3739 42.9562 26.4697 43.3839 24.6581H39.6875V21.8885H46.9751C47.026 22.2616 47.0497 22.6381 47.0497 23.0145C47.0497 24.1808 46.8495 25.253 46.449 26.2244C46.0484 27.1991 45.5087 28.0024 44.8265 28.641C44.1476 29.2796 43.3635 29.7737 42.4776 30.1233C41.5917 30.4728 40.6583 30.6476 39.6739 30.6476C38.5538 30.6476 37.4981 30.4594 36.5138 30.0829C35.5261 29.7065 34.6741 29.1855 33.9545 28.5167C33.2349 27.8478 32.668 27.0243 32.2505 26.0462C31.833 25.0682 31.626 24.0094 31.626 22.8633C31.626 21.3608 31.9688 20.0164 32.6545 18.8299C33.3401 17.6468 34.2973 16.7225 35.5294 16.0604C36.7616 15.3982 38.1533 15.0688 39.7078 15.0688Z" fill="#2C5697"/>
<path d="M62.9346 30.3819H59.0753L57.9246 27.2258H51.8963L50.7456 30.3819H46.9609L52.7856 15.3477H57.1133L62.9346 30.3819ZM53.0673 23.9824H56.7535L54.9104 18.9138L53.0673 23.9824Z" fill="#2C5697"/>
<path d="M70.9692 15.3477C72.8937 15.3477 74.3465 15.7073 75.3275 16.4266C76.3118 17.1458 76.8006 18.2046 76.8006 19.5995C76.8006 20.3221 76.6105 20.9607 76.2269 21.5153C75.8434 22.0699 75.3376 22.49 74.7097 22.7757C75.4021 23.0278 75.9792 23.4513 76.434 24.0496C76.8888 24.6479 77.1162 25.3234 77.1162 26.073C77.1162 27.4678 76.6309 28.5367 75.6635 29.2727C74.6961 30.0088 73.2569 30.3785 71.3459 30.3785H64.4385V15.3477H70.9692ZM68.0636 18.3659V21.3304H70.8843C72.3167 21.3304 73.0329 20.833 73.0329 19.8381C73.0329 18.8567 72.3167 18.3659 70.8843 18.3659H68.0636ZM68.0636 24.3252V27.3737H71.166C71.8958 27.3737 72.4457 27.2527 72.8191 27.0141C73.1924 26.7754 73.3791 26.3822 73.3791 25.8377C73.3791 25.2999 73.1924 24.9134 72.8191 24.6781C72.4457 24.4428 71.8958 24.3252 71.166 24.3252H68.0636Z" fill="#2C5697"/>
<path d="M111.524 19.7509C111.127 18.7829 110.577 17.9595 109.881 17.2772L109.878 17.2738C109.708 17.1091 109.634 16.8705 109.681 16.6419L110.034 14.8605C110.065 14.7126 110.173 14.595 110.323 14.558C110.774 14.437 111.158 14.1043 111.321 13.6304C111.612 12.7766 111.056 11.8422 110.099 11.7246C109.522 11.654 108.941 11.9532 108.663 12.4573C108.371 12.985 108.442 13.5766 108.758 14.0068C108.86 14.1446 108.88 14.3227 108.802 14.4774L108.16 15.7546C108.055 15.926 107.546 15.7411 107.342 15.6605C106.348 15.2672 105.272 15.0689 104.118 15.0689C102.96 15.0689 101.884 15.2672 100.893 15.6605C99.899 16.0537 99.0538 16.5915 98.3546 17.2772C97.6553 17.9595 97.1088 18.7863 96.7117 19.7509C96.3146 20.7189 96.1143 21.7542 96.1143 22.8633C96.1143 23.9725 96.3146 25.0111 96.7117 25.9757C97.1088 26.9437 97.6553 27.7672 98.3546 28.4495C99.0504 29.1318 99.899 29.6729 100.893 30.0662C101.888 30.4594 102.964 30.6577 104.118 30.6577C105.275 30.6577 106.351 30.4594 107.342 30.0662C108.334 29.6729 109.182 29.1352 109.881 28.4495C110.577 27.7672 111.127 26.9404 111.524 25.9757C111.921 25.0077 112.122 23.9725 112.122 22.8633C112.122 21.7542 111.921 20.7156 111.524 19.7509ZM107.162 26.0093C106.372 26.8194 105.357 27.2227 104.121 27.2227C102.886 27.2227 101.871 26.8194 101.08 26.0093C100.289 25.1993 99.8922 24.1506 99.8922 22.8633C99.8922 21.576 100.289 20.5274 101.08 19.7173C101.871 18.9073 102.886 18.504 104.121 18.504C105.357 18.504 106.372 18.9073 107.162 19.7173C107.953 20.5274 108.351 21.576 108.351 22.8633C108.347 24.154 107.953 25.2027 107.162 26.0093Z" fill="#2C5697"/>
<path d="M78.6162 22.8633C78.6162 23.9725 78.8165 25.0111 79.2136 25.9757C79.6107 26.9437 80.1606 27.7672 80.8565 28.4495C81.5557 29.1318 82.4009 29.6729 83.3954 30.0662C84.3899 30.4594 85.4659 30.6577 86.62 30.6577C87.7774 30.6577 88.8534 30.4594 89.8446 30.0662C90.8391 29.6729 91.6843 29.1352 92.3835 28.4495C93.0828 27.7672 93.6292 26.9404 94.0264 25.9757C94.4235 25.0077 94.6238 23.9725 94.6238 22.8633C94.6238 21.7542 94.4235 20.7156 94.0264 19.7509C93.6292 18.7829 93.0828 17.9595 92.3835 17.2772C91.6877 16.5949 90.8391 16.0537 89.8446 15.6605C88.85 15.2672 87.7741 15.0689 86.62 15.0689C85.4625 15.0689 84.3865 15.2672 83.3954 15.6605C83.1951 15.7411 82.6826 15.9226 82.5774 15.7546L81.9358 14.4774C81.8578 14.3261 81.8815 14.1446 81.98 14.0068C82.2956 13.5766 82.3669 12.985 82.075 12.4573C81.7967 11.9532 81.2162 11.654 80.6392 11.7246C79.682 11.8389 79.122 12.7766 79.4173 13.6304C79.5802 14.1009 79.9637 14.4337 80.4152 14.558C80.5611 14.5984 80.6732 14.716 80.7037 14.8605L81.0567 16.6419C81.1008 16.8738 81.0296 17.1091 80.8598 17.2738L80.8565 17.2772C80.1606 17.9595 79.6107 18.7863 79.2136 19.7509C78.8131 20.7156 78.6162 21.7542 78.6162 22.8633ZM82.3873 22.8633C82.3873 21.576 82.7844 20.5274 83.5753 19.7173C84.3662 18.9073 85.3811 18.504 86.6166 18.504C87.8521 18.504 88.867 18.9073 89.6579 19.7173C90.4488 20.5274 90.8459 21.576 90.8459 22.8633C90.8459 24.1506 90.4488 25.1993 89.6579 26.0093C88.867 26.8194 87.8521 27.2227 86.6166 27.2227C85.3811 27.2227 84.3662 26.8194 83.5753 26.0093C82.7844 25.2027 82.3873 24.154 82.3873 22.8633Z" fill="#2C5697"/>
<path d="M143.01 18.8335C144.765 20.5443 145.858 22.6652 146.299 24.8902V18.289C146.299 15.9631 144.534 14.0137 142.199 13.7482C142.036 13.7314 141.876 13.7146 141.713 13.6978C142.287 15.2842 142.636 16.9345 142.755 18.5983C142.84 18.6756 142.925 18.7529 143.01 18.8335Z" fill="#2F529F"/>
<path d="M146.299 27.1184V25.7202C145.841 26.221 145.349 26.6983 144.812 27.1453C143.292 28.4125 141.591 29.3334 139.812 29.9216C139.33 30.6543 138.791 31.3568 138.193 32.029C139.531 31.9315 140.865 31.8105 142.199 31.6559C144.534 31.3938 146.299 29.4443 146.299 27.1184Z" fill="#FBE008"/>
<path d="M142.755 18.5981C143.037 22.5138 142.06 26.5068 139.812 29.9217C141.591 29.3335 143.292 28.4126 144.812 27.1454C145.349 26.6984 145.841 26.2211 146.299 25.7203V24.8901C145.854 22.6651 144.765 20.5442 143.01 18.8334C142.925 18.7528 142.84 18.6755 142.755 18.5981Z" fill="#009E78"/>
<path d="M123.095 25.1421C120.366 21.8415 119.277 17.7342 119.735 13.7983C117.552 14.1916 115.937 16.0671 115.937 18.2921C115.937 21.2365 115.937 24.1774 115.937 27.1218C115.937 29.4477 117.702 31.3971 120.037 31.6626C121.351 31.8105 122.668 31.9349 123.985 32.029C122.987 29.8611 122.688 27.4512 123.095 25.1421Z" fill="#E10F33"/>
<path d="M123.095 25.1421C123.493 22.8834 124.562 20.7189 126.31 18.961C130.804 14.4403 138.095 14.3059 142.755 18.5947C142.636 16.9309 142.287 15.2806 141.713 13.6942C134.51 12.911 127.24 12.9278 120.037 13.7446C119.935 13.7547 119.833 13.7748 119.735 13.7916C119.277 17.7342 120.366 21.8415 123.095 25.1421Z" fill="#774D98"/>
<path d="M123.228 25.3034C123.184 25.2496 123.139 25.1959 123.095 25.1421C122.688 27.4545 122.987 29.8611 123.985 32.0256C128.713 32.3718 133.465 32.3718 138.193 32.029C138.791 31.3568 139.33 30.651 139.812 29.9216C134.025 31.8374 127.393 30.2073 123.228 25.3034Z" fill="#E10F33"/>
<path d="M142.755 18.5981C138.092 14.3094 130.804 14.4438 126.31 18.9645C124.565 20.7224 123.496 22.8869 123.095 25.1456C123.14 25.1994 123.18 25.2565 123.228 25.3069C127.396 30.2108 134.029 31.8409 139.812 29.9251C142.059 26.5068 143.037 22.5138 142.755 18.5981Z" fill="#73226B"/>
<path d="M130.162 20.4366H127.559V27.226H125.458V20.4366H122.848V18.5073H129.436L130.162 20.4366Z" fill="white"/>
<path d="M136.136 27.2226H133.635L130.376 18.5039H132.61L134.897 25.0816L137.199 18.5039H139.388L136.136 27.2226Z" fill="white"/>
</svg>
